<svg xmlns="http://www.w3.org/2000/svg" xmlns:xlink="http://www.w3.org/1999/xlink" width="60" zoomAndPan="magnify" viewBox="0 0 45 44.999999" height="60" preserveAspectRatio="xMidYMid meet" version="1.0"><defs><clipPath id="id1"><path d="M 1.648438 5.046875 L 43.648438 5.046875 L 43.648438 40.296875 L 1.648438 40.296875 Z M 1.648438 5.046875 " clip-rule="nonzero"/></clipPath></defs><g clip-path="url(#id1)"><path fill="#8d0606" d="M 39.691406 5.0625 L 5.605469 5.0625 C 3.425781 5.0625 1.648438 6.816406 1.648438 8.972656 L 1.648438 36.375 C 1.648438 38.527344 3.425781 40.28125 5.605469 40.28125 L 39.691406 40.28125 C 41.871094 40.28125 43.648438 38.527344 43.648438 36.375 L 43.648438 8.972656 C 43.648438 6.816406 41.871094 5.0625 39.691406 5.0625 Z M 4.867188 8.972656 C 4.867188 8.574219 5.203125 8.242188 5.605469 8.242188 L 39.691406 8.242188 C 40.089844 8.242188 40.425781 8.574219 40.425781 8.972656 L 40.425781 9.476562 L 23.027344 26.652344 C 22.820312 26.859375 22.476562 26.859375 22.269531 26.652344 L 4.867188 9.476562 Z M 40.425781 36.378906 C 40.425781 36.773438 40.089844 37.105469 39.691406 37.105469 L 5.605469 37.105469 C 5.203125 37.105469 4.867188 36.773438 4.867188 36.378906 L 4.867188 13.972656 L 19.988281 28.898438 C 20.695312 29.59375 21.640625 29.980469 22.644531 29.980469 C 23.648438 29.980469 24.59375 29.597656 25.300781 28.898438 L 40.417969 13.972656 L 40.417969 36.378906 Z M 40.425781 36.378906 " fill-opacity="1" fill-rule="nonzero"/></g></svg>