<svg xmlns="http://www.w3.org/2000/svg" xmlns:xlink="http://www.w3.org/1999/xlink" width="60" zoomAndPan="magnify" viewBox="0 0 45 44.999999" height="60" preserveAspectRatio="xMidYMid meet" version="1.0"><defs><clipPath id="id1"><path d="M 4.5 4.5 L 40.5 4.5 L 40.5 40.5 L 4.5 40.5 Z M 4.5 4.5 " clip-rule="nonzero"/></clipPath></defs><g clip-path="url(#id1)"><path fill="#8d0606" d="M 22.492188 7.746094 C 27.296875 7.746094 27.863281 7.761719 29.765625 7.847656 C 31.515625 7.925781 32.46875 8.21875 33.109375 8.472656 C 33.945312 8.792969 34.542969 9.1875 35.175781 9.820312 C 35.808594 10.453125 36.191406 11.050781 36.523438 11.886719 C 36.769531 12.519531 37.0625 13.472656 37.148438 15.230469 C 37.234375 17.132812 37.25 17.699219 37.25 22.503906 C 37.25 27.308594 37.234375 27.875 37.148438 29.777344 C 37.070312 31.527344 36.777344 32.480469 36.523438 33.121094 C 36.199219 33.957031 35.808594 34.554688 35.175781 35.1875 C 34.542969 35.820312 33.945312 36.207031 33.109375 36.535156 C 32.476562 36.78125 31.523438 37.074219 29.765625 37.160156 C 27.863281 37.246094 27.296875 37.261719 22.492188 37.261719 C 17.6875 37.261719 17.121094 37.246094 15.21875 37.160156 C 13.46875 37.082031 12.515625 36.789062 11.875 36.535156 C 11.039062 36.214844 10.441406 35.820312 9.808594 35.1875 C 9.175781 34.554688 8.789062 33.957031 8.460938 33.121094 C 8.214844 32.488281 7.921875 31.535156 7.835938 29.777344 C 7.75 27.875 7.734375 27.308594 7.734375 22.503906 C 7.734375 17.699219 7.75 17.132812 7.835938 15.230469 C 7.914062 13.480469 8.207031 12.527344 8.460938 11.886719 C 8.78125 11.050781 9.175781 10.453125 9.808594 9.820312 C 10.441406 9.1875 11.039062 8.804688 11.875 8.472656 C 12.507812 8.226562 13.460938 7.933594 15.21875 7.847656 C 17.121094 7.761719 17.6875 7.746094 22.492188 7.746094 M 22.492188 4.503906 C 17.601562 4.503906 16.996094 4.527344 15.070312 4.613281 C 13.152344 4.699219 11.84375 5.007812 10.699219 5.449219 C 9.515625 5.90625 8.515625 6.523438 7.511719 7.523438 C 6.519531 8.527344 5.902344 9.527344 5.445312 10.710938 C 5.003906 11.855469 4.695312 13.164062 4.609375 15.082031 C 4.523438 17 4.5 17.613281 4.5 22.496094 C 4.5 27.386719 4.523438 27.992188 4.609375 29.917969 C 4.695312 31.835938 5.003906 33.144531 5.445312 34.289062 C 5.902344 35.472656 6.519531 36.472656 7.519531 37.476562 C 8.523438 38.476562 9.523438 39.09375 10.707031 39.550781 C 11.851562 39.992188 13.160156 40.300781 15.078125 40.386719 C 16.996094 40.472656 17.609375 40.496094 22.5 40.496094 C 27.390625 40.496094 27.996094 40.472656 29.921875 40.386719 C 31.839844 40.300781 33.148438 39.992188 34.292969 39.550781 C 35.476562 39.09375 36.476562 38.476562 37.480469 37.476562 C 38.480469 36.472656 39.097656 35.472656 39.554688 34.289062 C 39.996094 33.144531 40.304688 31.835938 40.390625 29.917969 C 40.476562 28 40.5 27.386719 40.5 22.496094 C 40.5 17.605469 40.476562 17 40.390625 15.074219 C 40.304688 13.15625 39.996094 11.847656 39.554688 10.703125 C 39.097656 9.519531 38.480469 8.519531 37.480469 7.515625 C 36.476562 6.515625 35.476562 5.898438 34.292969 5.441406 C 33.148438 5 31.839844 4.691406 29.921875 4.605469 C 27.996094 4.527344 27.382812 4.503906 22.492188 4.503906 " fill-opacity="1" fill-rule="nonzero"/></g><path fill="#8d0606" d="M 22.492188 13.257812 C 17.390625 13.257812 13.253906 17.394531 13.253906 22.496094 C 13.253906 27.597656 17.398438 31.742188 22.5 31.742188 C 27.601562 31.742188 31.746094 27.605469 31.746094 22.496094 C 31.738281 17.394531 27.59375 13.257812 22.492188 13.257812 M 22.492188 28.5 C 19.179688 28.5 16.496094 25.816406 16.496094 22.503906 C 16.496094 19.191406 19.179688 16.507812 22.492188 16.507812 C 25.804688 16.507812 28.488281 19.191406 28.488281 22.503906 C 28.496094 25.808594 25.804688 28.5 22.492188 28.5 " fill-opacity="1" fill-rule="nonzero"/><path fill="#8d0606" d="M 34.261719 12.898438 C 34.261719 14.085938 33.289062 15.058594 32.097656 15.058594 C 30.910156 15.058594 29.9375 14.085938 29.9375 12.898438 C 29.9375 11.707031 30.910156 10.734375 32.097656 10.734375 C 33.289062 10.734375 34.261719 11.699219 34.261719 12.898438 " fill-opacity="1" fill-rule="nonzero"/></svg>