<svg xmlns="http://www.w3.org/2000/svg" xmlns:xlink="http://www.w3.org/1999/xlink" width="60" zoomAndPan="magnify" viewBox="0 0 45 44.999999" height="60" preserveAspectRatio="xMidYMid meet" version="1.0"><defs><clipPath id="id1"><path d="M 4.5 4.5 L 40.5 4.5 L 40.5 40.5 L 4.5 40.5 Z M 4.5 4.5 " clip-rule="nonzero"/></clipPath></defs><rect x="-4.5" width="54" fill="#ffffff" y="-4.5" height="53.999999" fill-opacity="1"/><rect x="-4.5" width="54" fill="#ffffff" y="-4.5" height="53.999999" fill-opacity="1"/><rect x="-4.5" width="54" fill="#ffffff" y="-4.5" height="53.999999" fill-opacity="1"/><g clip-path="url(#id1)"><path fill="#8d0606" d="M 35.28125 9.738281 C 31.914062 6.355469 27.433594 4.5 22.660156 4.5 C 12.835938 4.5 4.824219 12.511719 4.824219 22.339844 C 4.824219 25.488281 5.652344 28.546875 7.199219 31.246094 L 4.679688 40.5 L 14.128906 38.015625 C 16.738281 39.4375 19.675781 40.195312 22.660156 40.195312 C 32.488281 40.195312 40.5 32.183594 40.5 22.355469 C 40.5 17.585938 38.644531 13.105469 35.28125 9.738281 Z M 22.660156 37.171875 C 19.996094 37.171875 17.386719 36.449219 15.101562 35.101562 L 14.5625 34.777344 L 8.945312 36.253906 L 10.441406 30.78125 L 10.078125 30.222656 C 8.605469 27.863281 7.8125 25.128906 7.8125 22.339844 C 7.8125 14.164062 14.472656 7.507812 22.644531 7.507812 C 26.605469 7.507812 30.328125 9.054688 33.121094 11.863281 C 35.929688 14.671875 37.457031 18.394531 37.457031 22.355469 C 37.492188 30.527344 30.835938 37.171875 22.660156 37.171875 Z M 30.796875 26.082031 C 30.347656 25.867188 28.152344 24.785156 27.757812 24.625 C 27.34375 24.480469 27.054688 24.40625 26.746094 24.839844 C 26.441406 25.289062 25.597656 26.296875 25.34375 26.585938 C 25.09375 26.890625 24.820312 26.929688 24.371094 26.695312 C 23.921875 26.476562 22.480469 25.992188 20.789062 24.480469 C 19.457031 23.292969 18.574219 21.835938 18.304688 21.382812 C 18.054688 20.933594 18.269531 20.699219 18.503906 20.464844 C 18.703125 20.269531 18.953125 19.945312 19.171875 19.691406 C 19.386719 19.441406 19.476562 19.242188 19.621094 18.953125 C 19.765625 18.648438 19.691406 18.394531 19.585938 18.179688 C 19.476562 17.964844 18.574219 15.769531 18.214844 14.867188 C 17.855469 14.003906 17.476562 14.113281 17.207031 14.09375 C 16.9375 14.09375 16.648438 14.09375 16.34375 14.09375 C 16.039062 14.09375 15.570312 14.203125 15.15625 14.652344 C 14.761719 15.101562 13.609375 16.183594 13.609375 18.378906 C 13.609375 20.574219 15.210938 22.699219 15.425781 22.984375 C 15.640625 23.292969 18.574219 27.792969 23.039062 29.71875 C 24.101562 30.1875 24.929688 30.457031 25.578125 30.652344 C 26.640625 30.996094 27.613281 30.941406 28.386719 30.835938 C 29.25 30.707031 31.03125 29.753906 31.390625 28.710938 C 31.769531 27.664062 31.769531 26.785156 31.644531 26.585938 C 31.519531 26.386719 31.246094 26.296875 30.796875 26.082031 Z M 30.796875 26.082031 " fill-opacity="1" fill-rule="nonzero"/></g></svg>